<?xml version="1.0" encoding="utf-8"?>
<!-- Generator: Adobe Illustrator 19.2.1, SVG Export Plug-In . SVG Version: 6.00 Build 0)  -->
<svg version="1.1" id="Layer_1" xmlns="http://www.w3.org/2000/svg" xmlns:xlink="http://www.w3.org/1999/xlink" x="0px" y="0px"
	 viewBox="0 0 108 31.092" style="enable-background:new 0 0 108 31.092;" xml:space="preserve">
<style type="text/css">
	.st0{fill:#E86D1F;}
	.st1{fill:#006891;}
</style>
<g>
	<path class="st0" d="M0,21.389h5.007v1.063H1.161v2.609h3.733v1.063H1.161v3.524h3.846v1.063H0V21.389z"/>
	<path class="st0" d="M7.666,20.943l6.996,7.33v-6.885h1.162v9.703l-6.998-7.33v6.947h-1.16V20.943z"/>
	<path class="st0" d="M21.418,30.709h-1.161v-8.258h-2.212v-1.063h5.587v1.063h-2.214V30.709z"/>
	<path class="st0" d="M25.901,21.389h5.006v1.063h-3.845v2.609h3.733v1.063h-3.733v3.524h3.845v1.063h-5.006V21.389z"/>
	<path class="st0" d="M39.419,30.709H38.01l-2.743-3.941h-0.483v3.941h-1.161v-9.32h1.409c0.828,0,1.718,0.014,2.46,0.434
		c0.778,0.457,1.223,1.334,1.223,2.225c0,1.334-0.89,2.447-2.236,2.609L39.419,30.709z M34.783,25.803h0.372
		c1.187,0,2.472-0.223,2.472-1.707c0-1.459-1.385-1.668-2.533-1.668h-0.311V25.803z"/>
	<path class="st0" d="M44.069,30.709h-1.161v-8.258h-2.214v-1.063h5.588v1.063h-2.213V30.709z"/>
	<path class="st0" d="M48.963,28.373l-1.063,2.336h-1.248l4.45-9.717l4.451,9.717h-1.249l-1.063-2.336H48.963z M51.102,23.539
		l-1.657,3.773h3.313L51.102,23.539z"/>
	<path class="st0" d="M57.9,30.709h-1.162v-9.32H57.9V30.709z"/>
	<path class="st0" d="M61.113,20.943l6.996,7.33v-6.885h1.162v9.703l-6.996-7.33v6.947h-1.162V20.943z"/>
	<path class="st0" d="M73.998,24.555h-0.023l-1.088,6.154h-1.199l1.904-9.717l3.201,7.346l3.201-7.346l1.904,9.717h-1.199
		l-1.088-6.154h-0.025l-2.793,6.353L73.998,24.555z"/>
	<path class="st0" d="M84.369,21.389h5.006v1.063h-3.844v2.609h3.734v1.063h-3.734v3.524h3.844v1.063h-5.006V21.389z"/>
	<path class="st0" d="M92.035,20.943l6.997,7.33v-6.885h1.161v9.703l-6.996-7.33v6.947h-1.162V20.943z"/>
	<path class="st0" d="M105.787,30.709h-1.161v-8.258h-2.212v-1.063H108v1.063h-2.213V30.709z"/>
	<g>
		<g>
			<rect x="40.305" y="0.508" class="st1" width="3.981" height="15.315"/>
		</g>
		<g>
			<path class="st1" d="M102.04,0.508h-4.347l-5.496,14.288V0.508h-3.981v9.364h-0.04l-7.293-9.364h-3.981v13.849L71.686,0.508
				h-4.348l-5.511,14.324V0.508h-3.981v15.315h3.601h0.381h3.845h1.975c0.006-0.159,0.018-0.296,0.018-0.359
				c0-0.197,0.218-0.394,0.587-0.519c-0.098-2.098-3.084-3.12-1.949-0.033c-2.325-0.839-1.651-3.438-0.101-3.622
				c1.993-0.235,2.555,1.687,2.699,3.509c0.082-0.013,0.125-0.013,0.215-0.021c-0.022-2.862-2.223-6.205,0.335-8.586
				c2.558,2.382,0.358,5.724,0.336,8.586c0.087,0.007,0.13,0.007,0.214,0.021c0.146-1.823,0.706-3.744,2.699-3.509
				c1.549,0.185,2.225,2.783-0.1,3.622c1.134-3.087-1.854-2.065-1.951,0.033c0.371,0.125,0.586,0.322,0.586,0.519
				c0,0.063,0.012,0.2,0.02,0.359h1.954h3.693h0.552h3.43V6.439h0.041l7.292,9.384h3.587h0.395h3.83l0.518-1.303l1.791-4.863
				l1.49-4.416h0.041l1.625,4.876h-2.369l-1.121,3.045h4.566l0.995,2.661h4.245L102.04,0.508z"/>
		</g>
		<g>
			<path class="st1" d="M52.947,6.481l-1.017-0.305c-0.689-0.224-1.767-0.569-1.767-1.463c0-0.853,0.975-1.279,1.707-1.279
				c0.975,0,1.908,0.406,2.641,1.015l1.585-3.087c-1.361-0.772-3.251-1.26-4.795-1.26c-3.067,0-5.281,2.032-5.281,5.14
				c0,2.965,1.645,3.615,4.144,4.326c0.853,0.244,2.417,0.63,2.417,1.747c0,1.077-0.995,1.544-1.93,1.544
				c-1.36,0-2.895-1.019-3.891-1.894l-1.35,3.519c1.565,1.098,3.453,1.748,5.383,1.748c1.544,0,3.149-0.427,4.348-1.443
				c1.219-1.037,1.584-2.601,1.584-4.123C56.726,8.186,55.08,7.109,52.947,6.481z"/>
		</g>
		<g>
			<path class="st1" d="M34.658,8.572c0,1.99-0.142,4.165-2.701,4.165c-2.56,0-2.702-2.175-2.702-4.165V0.508h-3.98V9.12
				c0,1.971,0.081,3.922,1.604,5.403c1.279,1.26,3.29,1.708,5.078,1.708c1.787,0,3.799-0.447,5.078-1.708
				c1.523-1.481,1.604-3.432,1.604-5.403V0.508h-3.981V8.572z"/>
		</g>
		<g>
			<polygon class="st1" points="3.981,0.508 0,0.508 0,15.823 8.754,15.823 9.991,12.451 3.981,12.451 			"/>
		</g>
		<g>
			<path class="st1" d="M16.007,0c-4.408,0-8.47,3.25-8.47,7.881c0,1.408,0.295,2.693,0.819,3.818h2.732l-0.134,0.346l-0.786,2.135
				c1.485,1.356,3.506,2.151,5.839,2.151c4.916,0,8.472-3.495,8.472-8.45C24.479,3.25,20.415,0,16.007,0z M16.007,12.473
				c-2.376,0-4.326-1.93-4.326-4.572c0-2.112,1.95-4.042,4.326-4.042c2.377,0,4.327,1.93,4.327,4.042
				C20.334,10.542,18.384,12.473,16.007,12.473z"/>
		</g>
	</g>
</g>
</svg>
