<svg id="Layer_1" data-name="Layer 1" xmlns="http://www.w3.org/2000/svg" viewBox="0 0 405.819 84.74"><defs><style>.cls-1{fill:#da6121;}</style></defs><title>logo</title><path class="cls-1" d="M303.458,12.334c0,16.758-8.765,31-20.977,36.2l0.01,0.153V75.413H262.168V48.764l-0.039-.182c-12.269-5.158-21.088-19.439-21.088-36.248V3.94h20.7l0.186,0v15.22c0,6.913,4.563,12.517,10.2,12.517s10.2-5.6,10.2-12.517V3.863h21.137v8.471Z"/><path class="cls-1" d="M65.7,35.074C65.656,15.768,78.374.057,94.059,0c15.676-.017,28.465,15.614,28.541,34.944,0.032,19.285-12.658,34.985-28.363,35.017-15.713.064-28.5-15.6-28.541-34.887M90.344,53.551c6.618,0,11.932-6.221,11.932-13.8,0.039-7.607-5.385-13.73-11.965-13.743-6.647.014-11.937,6.227-11.931,13.813,0.009,7.6,5.361,13.745,11.964,13.731"/><path class="cls-1" d="M357.636,60.348c3.753,3.064,11.981,9.091,20.148,10.453,11.144,1.8,26.017-3.984,27.662-14.185,4.006-24.391-25.689-22.887-23.491-36.154,0,0,.851-7.043,8.932-5.682,6.377,1,14.811,7.828,14.811,7.828l0.081-17.3c-2.293-1.325-6.467-3.078-13.627-4.265-12.849-2.086-30.3,1.076-32.414,14.11-2.984,18.3,22.256,18.949,20.416,30.181,0,0-1.006,6.83-9.675,5.414-5.773-.947-12.706-6-12.706-6Z"/><path class="cls-1" d="M26.513,55.873V75.279H6.461V25.411H0V4.536L1.82,4.545l6.2-.006C26.7,4.646,62.934,6.008,62.824,34.226,62.7,56.821,26.774,55.8,26.774,55.8Zm0.321-14.566s12.9,0.852,12.949-7.359c0.032-9.391-12.851-8.39-12.851-8.39l-0.114,0V41.28Z"/><path class="cls-1" d="M150.66,55.873V75.279H130.607V25.411h-6.461V4.536l1.819,0.009,6.2-.006c18.686,0.106,54.915,1.469,54.8,29.686C186.851,56.821,150.92,55.8,150.92,55.8Zm0.318-14.566s12.905,0.852,12.949-7.359c0.031-9.391-12.851-8.39-12.851-8.39l-0.113,0V41.28Z"/><path class="cls-1" d="M231.177,41.05S229.611,29.1,218.448,29.328c-9.317.188-10.872,11.75-10.872,11.75Zm9.568,29.192c-5.32,7.757-14.769,14.5-23.666,14.5-16.017,0-29-15.955-29-35.639s13-36.324,29-35.639c21.272,0.912,28.107,15.947,26.91,40.72l-37.363.039s1.085,23.578,28.991,8.332Z"/><path class="cls-1" d="M341.959,41.05S340.4,29.1,329.229,29.328c-9.317.188-10.871,11.75-10.871,11.75Zm9.568,29.192c-5.32,7.757-14.766,14.5-23.667,14.5-16.015,0-29-15.955-29-35.639s13-36.324,29-35.639c21.275,0.912,28.108,15.947,26.915,40.72l-37.366.039S318.493,77.8,346.4,62.554Z"/><path class="cls-1" d="M401.624,72.609h-0.851v1.267h0.79c0.736,0,1.006-.175,1.006-0.664,0-.416-0.28-0.6-0.945-0.6m0.934,3.717-1.119-1.848h-0.665v1.848h-0.718V72.008H401.7c1.09,0,1.578.395,1.578,1.255a1.084,1.084,0,0,1-1.131,1.164l1.214,1.9h-0.8Zm-1.026-5.615a3.384,3.384,0,1,0,3.384,3.384,3.384,3.384,0,0,0-3.384-3.384m0,7.288a3.9,3.9,0,1,1,3.9-3.9,3.9,3.9,0,0,1-3.9,3.9"/></svg>